<?xml version="1.0" encoding="UTF-8"?>
<svg id="Layer_2" data-name="Layer 2" xmlns="http://www.w3.org/2000/svg" width="313.68" height="108.75" viewBox="0 0 313.68 108.75">
  <defs>
    <style>
      .cls-1 {
        fill: #9ea4d0;
      }

      .cls-1, .cls-2, .cls-3 {
        stroke-width: 0px;
      }

      .cls-2 {
        fill: #21519f;
      }

      .cls-3 {
        fill: #fff;
      }

      .cls-4 {
        fill: #231f20;
        font-family: AkzidenzGroteskBQ-Cnd, 'Akzidenz-Grotesk BQ Condensed';
        font-size: 98.6px;
      }
    </style>
  </defs>
  <g id="Layer_1-2" data-name="Layer 1">
    <g>
      <path class="cls-1" d="m67.3,80.21V18.39c0-2.15,1.74-3.89,3.89-3.89h1.08c2.15,0,3.89,1.74,3.89,3.89v54.03c0,2.15,1.74,3.89,3.89,3.89h12.62c2.15,0,3.89,1.74,3.89,3.89h0c0,2.15-1.74,3.89-3.89,3.89h-21.5c-2.15,0-3.89-1.74-3.89-3.89Z"/>
      <g>
        <g>
          <path class="cls-2" d="m67.09,26.74c-1.56-3.16-3.08-6.33-4.62-9.49-.61-1.24-1.13-2.59-1.86-3.76-.61-.98-.94-2.34-1.73-3.18-.49-.52-1.09-.89-1.77-1.09-1.35-.37-2.88.19-4.21.41-1.45.24-2.96.48-4.37.72-3.36.59-6.71,1.23-10.07,1.82-2.36.42-4.01,1.65-5.1,3.81-3.82,7.64-7.71,15.25-11.56,22.87-3.93,7.76-7.87,15.51-11.79,23.28-1.45,2.85-1.41,6.03,2.58,7.98,7.73,3.8,15.39,7.76,23.08,11.66.37.19.74.39,1.13.54,1.67.67,3.34.64,4.7-.59.89-.79,1.69-1.8,2.24-2.86,7.79-15.29,15.52-30.6,23.3-45.9,1.06-2.1,1.09-4.12.05-6.22Zm-2.17,5.21c-5.47,10.75-10.91,21.52-16.37,32.28-2.28,4.49-4.54,9-6.84,13.48-.37.71-.85,1.38-1.38,1.97-.68.75-1.58.86-2.52.51-.34-.13-.67-.31-.99-.47-7.76-3.93-15.51-7.88-23.28-11.77-1.97-.99-2.6-2.1-1.55-4.53.18-.41.39-.8.59-1.2,7.61-15,15.22-29.99,22.79-45.01.8-1.6,1.95-2.46,3.69-2.77,5.4-.94,10.78-1.95,16.18-2.93.08-.02.16-.02.23-.03.92-.09,1.57.35,2.07.98.41.52.71,1.17.96,1.79.18.44.37.89.56,1.33.02.04.04.08.06.13,1.32,3.02,2.87,5.91,4.32,8.89.52,1.06,1,2.13,1.55,3.17.74,1.41.65,2.77-.07,4.18Zm-9.57-12.97c-.13-.93-.79-1.69-1.67-2.01-.29-.11-.61-.17-.94-.17-1.45,0-2.63,1.14-2.63,2.54,0,.17.02.34.05.5,0,0,.01.02.01.03.12.8.61,1.52,1.36,1.91,1.16.61,2.55.28,3.31-.85.07-.11.14-.22.19-.34.22-.37.35-.8.35-1.25,0-.12-.01-.24-.03-.35h0Zm3.77-3.27c1.32,3.02,2.87,5.91,4.32,8.89-1.42-2.93-2.84-5.86-4.32-8.89Zm-3.65-4.23c.92-.09,1.57.35,2.07.98-.45-.89-.99-1.14-2.07-.98Zm-.23,8.22c.02.28-.07.6-.21.89.22-.37.35-.8.35-1.25,0-.12-.01-.24-.03-.35-.09.2-.13.43-.11.71Zm-2.5,2.18c-1.26,0-2.32-.86-2.57-2.01.12.8.61,1.52,1.36,1.91,1.16.61,2.55.28,3.31-.85.07-.11.14-.22.19-.34-.45.77-1.3,1.29-2.29,1.29Zm-2.47-3.17c.43-1.25,1.59-1.91,2.98-1.72.13.01.29.01.43-.02-.29-.11-.61-.17-.94-.17-1.45,0-2.63,1.14-2.63,2.54,0,.17.02.34.05.5-.04-.37-.01-.76.11-1.13Z"/>
          <path class="cls-3" d="m64.99,27.77c-.55-1.04-1.03-2.11-1.55-3.17-1.45-2.98-3-5.87-4.32-8.89-.02-.05-.04-.09-.06-.13-.19-.44-.38-.89-.56-1.33-.25-.62-.55-1.27-.96-1.79-.5-.63-1.15-1.07-2.07-.98-.07.01-.15.01-.23.03-5.4.98-10.78,1.99-16.18,2.93-1.74.31-2.89,1.17-3.69,2.77-7.57,15.02-15.18,30.01-22.79,45.01-.2.4-.41.79-.59,1.2-1.05,2.43-.42,3.54,1.55,4.53,7.77,3.89,15.52,7.84,23.28,11.77.32.16.65.34.99.47.94.35,1.84.24,2.52-.51.53-.59,1.01-1.26,1.38-1.97,2.3-4.48,4.56-8.99,6.84-13.48,5.46-10.76,10.9-21.53,16.37-32.28.72-1.41.81-2.77.07-4.18Zm-9.96-7.18c-.05.12-.12.23-.19.34-.76,1.13-2.15,1.46-3.31.85-.75-.39-1.24-1.11-1.36-1.91,0-.01-.01-.02-.01-.03-.03-.16-.05-.33-.05-.5,0-1.4,1.18-2.54,2.63-2.54.33,0,.65.06.94.17.88.32,1.54,1.08,1.67,2.01h0c.02.12.03.24.03.36,0,.45-.13.88-.35,1.25Z"/>
          <path class="cls-3" d="m55.38,19.34c0,.45-.13.88-.35,1.25-.05.12-.12.23-.19.34-.76,1.13-2.15,1.46-3.31.85-.75-.39-1.24-1.11-1.36-1.91,0-.01-.01-.02-.01-.03-.03-.16-.05-.33-.05-.5,0-1.4,1.18-2.54,2.63-2.54.33,0,.65.06.94.17.88.32,1.54,1.08,1.67,2.01h0c.02.12.03.24.03.36Z"/>
        </g>
        <path class="cls-2" d="m55.38,19.34c0,.45-.13.88-.35,1.25-.45.77-1.3,1.29-2.29,1.29-1.26,0-2.32-.86-2.57-2.01,0-.01-.01-.02-.01-.03-.03-.16-.05-.33-.05-.5,0-1.4,1.18-2.54,2.63-2.54.33,0,.65.06.94.17.88.32,1.54,1.08,1.67,2.01h0c.02.12.03.24.03.36Z"/>
      </g>
      <path class="cls-1" d="m0,80.21V18.39c0-2.15,1.74-3.89,3.89-3.89h1.08c2.15,0,3.89,1.74,3.89,3.89v54.03c0,2.15,1.74,3.89,3.89,3.89h12.62c2.15,0,3.89,1.74,3.89,3.89h0c0,2.15-1.74,3.89-3.89,3.89H3.89c-2.15,0-3.89-1.74-3.89-3.89Z"/>
      <path class="cls-2" d="m44,56.04c-.01.67-.15,1.32-.44,1.93l-6.05,13.86-13.54-6.72c-.62-.28-1.15-.7-1.58-1.2-.45-.51-.8-1.12-1.07-1.85-.47-1.29-.42-2.61.14-3.93.56-1.32,1.5-2.21,2.8-2.69,1.11-.4,2.31-.51,3.59-.36,1.29.18,2.7.81,4.26,1.9.46-1.83,1.14-3.22,2.01-4.17.86-.95,1.85-1.63,2.98-2.04,1.31-.48,2.6-.39,3.88.25,1.28.64,2.17,1.63,2.64,2.92.26.74.39,1.43.38,2.11Z"/>
    </g>
    <text class="cls-4" transform="translate(106.33 84.1)"><tspan x="0" y="0">Market</tspan></text>
  </g>
</svg>